<svg width="72" height="42" viewBox="0 0 72 42" fill="none" xmlns="http://www.w3.org/2000/svg">
<g id="Group 377">
<g id="Group">
<path id="Vector" d="M40.0851 14.3669C34.0989 9.87721 34.2485 10.0269 34.2485 8.82963V8.67997C34.6975 8.08136 34.9968 7.33308 34.9968 6.13584C34.9968 3.44206 33.5002 0 31.7044 0C29.9085 0 28.5616 3.44206 28.5616 6.13584C28.5616 7.33308 28.8609 8.08136 29.3099 8.67997V8.82963C29.3099 10.9248 28.412 10.0269 23.0244 14.5165C25.4189 15.4144 31.2554 17.2103 40.0851 14.3669Z" fill="#F3922A"/>
<path id="Vector_2" d="M71.3624 13.918C70.0156 13.918 68.6687 13.7683 67.4714 13.1697C67.3218 13.0201 67.0225 13.0201 66.7232 13.0201C66.7232 13.0201 58.3425 15.1152 54.9004 16.7614C54.9004 16.7614 47.4177 20.2035 42.0301 16.0132C35.595 18.258 27.0647 19.3056 21.0785 16.0132C19.133 17.6594 17.3371 19.3056 16.8881 19.9042C16.8881 20.0538 16.8881 20.0538 16.7385 20.2035C16.2895 19.4552 15.8406 18.1083 15.9902 16.4621C15.9902 16.4621 16.1399 13.0201 12.3985 12.2718C4.46679 10.7753 -2.26767 14.5166 0.725424 19.0063C1.4737 20.0538 2.52128 20.8021 3.56886 21.1014C5.81368 21.8497 10.1537 23.3462 11.6502 24.2442C11.5006 24.2442 10.453 24.2442 10.004 25.2918C8.80678 27.8359 13.2964 29.1828 14.6433 27.8359C14.9426 27.3869 15.5412 27.2373 16.2895 27.5366C16.8881 28.7338 18.0854 30.0807 19.8812 31.2779C19.8812 31.2779 21.9764 33.0738 26.0171 33.9717C27.2143 34.271 27.364 34.271 26.0171 33.9717C24.9695 34.72 23.7723 35.9172 23.3233 36.5159C22.575 37.7131 20.7792 40.2572 31.704 41.0055C42.6287 40.2572 40.6832 37.5634 40.0846 36.5159C39.6357 35.7676 37.9895 34.4207 36.9419 33.6724C36.7922 33.6724 36.6426 33.8221 36.6426 33.8221C31.5543 35.0193 32.9012 34.72 36.6426 33.8221C36.6426 33.8221 36.7922 33.8221 36.9419 33.6724C50.5604 29.9311 60.8866 18.4076 68.07 16.6118C70.3149 16.0132 71.3624 15.5642 71.8114 14.9656C71.9611 14.8159 71.9611 14.6663 71.9611 14.5166C72.1107 14.367 71.8114 13.918 71.3624 13.918ZM5.81368 17.809C4.16748 16.1628 6.86127 12.8704 10.1537 16.4621C11.2013 17.6594 14.1943 20.5028 14.344 22.2987C14.344 24.0945 7.31023 19.0063 5.81368 17.809Z" fill="#F3922A"/>
</g>
<g id="Log out">
<path d="M21.2859 24.9227C21.2859 25.1634 21.3347 25.3927 21.4321 25.6105C21.5295 25.8283 21.6585 26.0174 21.819 26.1779C21.9794 26.3441 22.1628 26.473 22.3692 26.5647C22.5755 26.6622 22.7904 26.7109 23.0139 26.7109C23.2145 26.7109 23.3807 26.6564 23.5126 26.5475C23.6444 26.4387 23.7246 26.2467 23.7533 25.9715L23.7791 25.9458C23.9797 25.9973 24.1201 26.0776 24.2003 26.1865C24.2863 26.2954 24.3293 26.4129 24.3293 26.5389C24.3293 26.6937 24.2834 26.7997 24.1917 26.857C24.1058 26.9201 24.0227 26.9659 23.9424 26.9946C23.9424 27.0978 23.9166 27.178 23.865 27.2353C23.8135 27.2984 23.7504 27.3442 23.6759 27.3729C23.6071 27.4072 23.5298 27.4273 23.4438 27.433C23.3635 27.4445 23.2919 27.4502 23.2289 27.4502C22.9881 27.4502 22.7675 27.4072 22.5669 27.3213C22.372 27.241 22.1886 27.1407 22.0167 27.0204C21.8447 26.9 21.6814 26.7653 21.5267 26.6163C21.3719 26.473 21.2143 26.3412 21.0538 26.2209C20.8991 26.1005 20.7357 25.9973 20.5638 25.9114C20.3976 25.8311 20.2142 25.791 20.0136 25.791H19.7471V25.4299C19.8216 25.4299 19.9047 25.4271 19.9964 25.4213C20.0881 25.4099 20.1712 25.3812 20.2457 25.3354C20.3202 25.2895 20.3832 25.2179 20.4348 25.1204C20.4864 25.0173 20.5122 24.874 20.5122 24.6906V19.6527C20.5122 19.4751 20.4434 19.3404 20.3059 19.2487C20.1741 19.1512 19.9878 19.1025 19.7471 19.1025C19.7471 19.0051 19.7815 18.922 19.8502 18.8532C19.919 18.7787 20.0394 18.7415 20.2113 18.7415C20.3603 18.7415 20.4921 18.7672 20.6068 18.8188C20.7271 18.8704 20.8246 18.9335 20.8991 19.008C20.9736 18.9335 21.0681 18.8704 21.1828 18.8188C21.3031 18.7672 21.4378 18.7415 21.5868 18.7415C21.7588 18.7415 21.8791 18.7787 21.9479 18.8532C22.0167 18.922 22.0511 19.0051 22.0511 19.1025C21.8161 19.1025 21.6298 19.1512 21.4923 19.2487C21.3547 19.3404 21.2859 19.4751 21.2859 19.6527V24.9227Z" fill="#2D3E4E"/>
<path d="M25.5525 25.9114C25.266 25.9114 24.9995 25.8626 24.753 25.7652C24.5123 25.6621 24.3002 25.5188 24.1168 25.3354C23.9334 25.152 23.7902 24.9313 23.687 24.6734C23.5838 24.4155 23.5322 24.1261 23.5322 23.8051C23.5322 23.4784 23.5838 23.189 23.687 22.9368C23.7902 22.6846 23.9334 22.4726 24.1168 22.3006C24.3002 22.1229 24.5123 21.9911 24.753 21.9052C24.9995 21.8135 25.266 21.7676 25.5525 21.7676C25.8334 21.7676 26.097 21.8135 26.3435 21.9052C26.5899 21.9911 26.8048 22.1229 26.9882 22.3006C27.1716 22.4726 27.3149 22.6846 27.4181 22.9368C27.5213 23.189 27.5728 23.4784 27.5728 23.8051C27.5728 24.1318 27.5213 24.4241 27.4181 24.682C27.3149 24.9399 27.1716 25.1606 26.9882 25.344C26.8048 25.5274 26.5899 25.6678 26.3435 25.7652C26.097 25.8626 25.8334 25.9114 25.5525 25.9114ZM25.5611 25.5159C25.7732 25.5159 25.9537 25.4701 26.1027 25.3784C26.2518 25.2867 26.375 25.1634 26.4724 25.0087C26.5699 24.8482 26.6415 24.6648 26.6873 24.4585C26.7332 24.2521 26.7561 24.0344 26.7561 23.8051C26.7561 23.5816 26.7332 23.3695 26.6873 23.1689C26.6415 22.9683 26.5699 22.7964 26.4724 22.6531C26.375 22.5041 26.2489 22.3866 26.0942 22.3006C25.9451 22.2146 25.7646 22.1717 25.5525 22.1717C25.3405 22.1717 25.1571 22.2146 25.0023 22.3006C24.8533 22.3809 24.7301 22.4955 24.6327 22.6445C24.5352 22.7878 24.4636 22.9597 24.4177 23.1603C24.3719 23.3609 24.349 23.5758 24.349 23.8051C24.349 24.0344 24.3719 24.2521 24.4177 24.4585C24.4636 24.6648 24.5352 24.8482 24.6327 25.0087C24.7358 25.1634 24.8619 25.2867 25.0109 25.3784C25.1657 25.4701 25.3491 25.5159 25.5611 25.5159Z" fill="#2D3E4E"/>
<path d="M30.1757 25.9114C29.8662 25.9114 29.5939 25.8598 29.3589 25.7566C29.124 25.6535 28.9262 25.5102 28.7657 25.3268C28.6053 25.1376 28.4849 24.9141 28.4047 24.6562C28.3244 24.3983 28.2843 24.1146 28.2843 23.8051C28.2843 23.444 28.3388 23.1374 28.4477 22.8852C28.5623 22.6273 28.7084 22.4152 28.8861 22.249C29.0695 22.0828 29.2758 21.9625 29.5051 21.888C29.7401 21.8077 29.9779 21.7676 30.2186 21.7676C30.4765 21.7676 30.7058 21.8077 30.9064 21.888C31.107 21.9625 31.2933 22.1172 31.4652 22.3522C31.4996 22.2261 31.554 22.1315 31.6285 22.0685C31.7031 21.9997 31.789 21.951 31.8865 21.9224C31.9839 21.888 32.0871 21.8679 32.196 21.8622C32.3048 21.8564 32.4109 21.8536 32.514 21.8536V22.1115C32.4395 22.1115 32.3765 22.1287 32.3249 22.1631C32.2791 22.1917 32.2418 22.2748 32.2131 22.4124C32.1902 22.5442 32.173 22.7448 32.1616 23.0142C32.1558 23.2778 32.153 23.6446 32.153 24.1146V26.0747C32.153 26.7281 31.9896 27.2009 31.6629 27.4932C31.342 27.7912 30.8348 27.9403 30.1413 27.9403C29.7171 27.9403 29.4019 27.8944 29.1956 27.8027C28.995 27.711 28.8947 27.5964 28.8947 27.4588C28.7457 27.4588 28.6397 27.4072 28.5766 27.3041C28.5136 27.2066 28.482 27.1064 28.482 27.0032C28.482 26.9058 28.505 26.8198 28.5508 26.7453C28.5967 26.6765 28.654 26.6192 28.7228 26.5733C28.7915 26.5275 28.8632 26.4931 28.9377 26.4702C29.0179 26.4472 29.0896 26.4358 29.1526 26.4358C29.1526 26.5905 29.1698 26.7338 29.2042 26.8656C29.2443 27.0032 29.3074 27.1207 29.3933 27.2181C29.4793 27.3213 29.5882 27.4015 29.72 27.4588C29.8576 27.5219 30.0238 27.5534 30.2186 27.5534C30.3906 27.5534 30.5482 27.5276 30.6915 27.476C30.8348 27.4244 30.9551 27.3385 31.0525 27.2181C31.1557 27.0978 31.236 26.9401 31.2933 26.7453C31.3506 26.5504 31.3792 26.3097 31.3792 26.0231V25.4643C31.1844 25.6535 30.9838 25.7738 30.7774 25.8254C30.5711 25.8827 30.3705 25.9114 30.1757 25.9114ZM30.3046 25.5159C30.4995 25.5159 30.6714 25.4729 30.8204 25.3869C30.9694 25.2952 31.0898 25.172 31.1815 25.0173C31.2789 24.8625 31.3506 24.6849 31.3964 24.4843C31.448 24.2779 31.4738 24.0573 31.4738 23.8223C31.4738 23.5988 31.4509 23.3896 31.405 23.1947C31.3592 22.9941 31.2875 22.8193 31.1901 22.6703C31.0927 22.5155 30.9694 22.3952 30.8204 22.3092C30.6771 22.2232 30.5023 22.1803 30.296 22.1803C30.0725 22.1803 29.8834 22.2232 29.7286 22.3092C29.5739 22.3895 29.4506 22.5041 29.3589 22.6531C29.2672 22.7964 29.2013 22.9683 29.1612 23.1689C29.1211 23.3638 29.101 23.5758 29.101 23.8051C29.101 24.0286 29.1182 24.2435 29.1526 24.4499C29.1927 24.6562 29.2586 24.8396 29.3503 25.0001C29.4478 25.1548 29.571 25.2809 29.72 25.3784C29.8748 25.4701 30.0696 25.5159 30.3046 25.5159Z" fill="#2D3E4E"/>
<path d="M37.4238 25.9114C37.1372 25.9114 36.8707 25.8626 36.6243 25.7652C36.3836 25.6621 36.1715 25.5188 35.9881 25.3354C35.8047 25.152 35.6614 24.9313 35.5583 24.6734C35.4551 24.4155 35.4035 24.1261 35.4035 23.8051C35.4035 23.4784 35.4551 23.189 35.5583 22.9368C35.6614 22.6846 35.8047 22.4726 35.9881 22.3006C36.1715 22.1229 36.3836 21.9911 36.6243 21.9052C36.8707 21.8135 37.1372 21.7676 37.4238 21.7676C37.7046 21.7676 37.9683 21.8135 38.2147 21.9052C38.4612 21.9911 38.6761 22.1229 38.8595 22.3006C39.0429 22.4726 39.1862 22.6846 39.2894 22.9368C39.3925 23.189 39.4441 23.4784 39.4441 23.8051C39.4441 24.1318 39.3925 24.4241 39.2894 24.682C39.1862 24.9399 39.0429 25.1606 38.8595 25.344C38.6761 25.5274 38.4612 25.6678 38.2147 25.7652C37.9683 25.8626 37.7046 25.9114 37.4238 25.9114ZM37.4324 25.5159C37.6445 25.5159 37.825 25.4701 37.974 25.3784C38.123 25.2867 38.2463 25.1634 38.3437 25.0087C38.4411 24.8482 38.5128 24.6648 38.5586 24.4585C38.6045 24.2521 38.6274 24.0344 38.6274 23.8051C38.6274 23.5816 38.6045 23.3695 38.5586 23.1689C38.5128 22.9683 38.4411 22.7964 38.3437 22.6531C38.2463 22.5041 38.1202 22.3866 37.9654 22.3006C37.8164 22.2146 37.6359 22.1717 37.4238 22.1717C37.2118 22.1717 37.0283 22.2146 36.8736 22.3006C36.7246 22.3809 36.6014 22.4955 36.5039 22.6445C36.4065 22.7878 36.3349 22.9597 36.289 23.1603C36.2432 23.3609 36.2202 23.5758 36.2202 23.8051C36.2202 24.0344 36.2432 24.2521 36.289 24.4585C36.3349 24.6648 36.4065 24.8482 36.5039 25.0087C36.6071 25.1634 36.7332 25.2867 36.8822 25.3784C37.0369 25.4701 37.2203 25.5159 37.4324 25.5159Z" fill="#2D3E4E"/>
<path d="M43.2763 23.5472C43.2763 23.3351 43.2706 23.1603 43.2591 23.0228C43.2534 22.8795 43.2304 22.7706 43.1903 22.6961C43.1502 22.6158 43.0929 22.5614 43.0184 22.5327C42.9439 22.4984 42.8407 22.4812 42.7089 22.4812V22.2232C42.8522 22.2232 42.9725 22.2146 43.07 22.1975C43.1731 22.1803 43.2648 22.1545 43.3451 22.1201C43.4253 22.0857 43.4998 22.0456 43.5686 21.9997C43.6374 21.9539 43.7119 21.9052 43.7921 21.8536H44.05V24.9055C44.05 25.0201 44.0672 25.1147 44.1016 25.1892C44.1417 25.2637 44.1876 25.3239 44.2392 25.3698C44.2965 25.4156 44.3595 25.45 44.4283 25.4729C44.5028 25.4901 44.5744 25.4987 44.6432 25.4987V25.7996C44.5114 25.7824 44.3968 25.7681 44.2993 25.7566C44.2076 25.7394 44.0901 25.7308 43.9469 25.7308C43.752 25.7308 43.5571 25.7509 43.3623 25.791L43.2763 25.705V25.2236C43.2133 25.321 43.1473 25.4127 43.0786 25.4987C43.0155 25.5789 42.9381 25.6506 42.8464 25.7136C42.7547 25.7709 42.6487 25.8168 42.5284 25.8512C42.408 25.8913 42.2647 25.9114 42.0985 25.9114C41.5254 25.9114 41.1156 25.7366 40.8691 25.3869C40.6227 25.0316 40.4937 24.5186 40.4823 23.8481C40.4765 23.5386 40.4679 23.295 40.4565 23.1173C40.4507 22.9339 40.4307 22.7964 40.3963 22.7047C40.3619 22.6072 40.3075 22.5471 40.233 22.5241C40.1584 22.4955 40.0524 22.4812 39.9149 22.4812V22.2232C40.0581 22.2232 40.1785 22.2146 40.2759 22.1975C40.3791 22.1803 40.4708 22.1545 40.551 22.1201C40.6313 22.0857 40.7058 22.0456 40.7746 21.9997C40.8433 21.9539 40.9178 21.9052 40.9981 21.8536H41.256V23.6675C41.256 24.0172 41.2789 24.3095 41.3248 24.5444C41.3706 24.7794 41.4337 24.9686 41.5139 25.1118C41.5999 25.2551 41.7002 25.3583 41.8148 25.4213C41.9294 25.4787 42.0555 25.5073 42.1931 25.5073C42.3535 25.5073 42.4997 25.4672 42.6315 25.3869C42.7691 25.301 42.8837 25.1835 42.9754 25.0345C43.0728 24.8855 43.1473 24.7106 43.1989 24.5101C43.2505 24.3037 43.2763 24.0831 43.2763 23.8481V23.5472Z" fill="#2D3E4E"/>
<path d="M46.4563 24.8539C46.4563 25.152 46.4706 25.3927 46.4992 25.5761C46.5336 25.7595 46.5766 25.8999 46.6282 25.9973C46.6798 26.1005 46.7371 26.1693 46.8001 26.2037C46.8689 26.2381 46.9377 26.2552 47.0065 26.2552C47.0867 26.2552 47.1526 26.2466 47.2042 26.2295C47.2615 26.2123 47.3131 26.1893 47.3589 26.1607L47.4449 26.2381C47.3819 26.3871 47.2959 26.496 47.187 26.5647C47.0838 26.6392 46.9663 26.6765 46.8345 26.6765C46.6683 26.6765 46.5279 26.6421 46.4133 26.5733C46.3044 26.5046 46.2499 26.4129 46.2499 26.2982C46.0149 26.2982 45.8602 26.1979 45.7857 25.9973C45.7169 25.7967 45.6825 25.5016 45.6825 25.1118V22.2576H45.1151V21.8536H45.1667C45.3214 21.8536 45.4533 21.8192 45.5622 21.7504C45.6768 21.6759 45.7742 21.5813 45.8545 21.4667C45.9404 21.3521 46.0121 21.2231 46.0694 21.0798C46.1324 20.9308 46.1897 20.7818 46.2413 20.6328H46.4563V21.8536C46.6626 21.8478 46.8317 21.8335 46.9635 21.8106C47.101 21.7819 47.2013 21.7361 47.2644 21.673C47.3962 21.696 47.4822 21.7447 47.5223 21.8192C47.5624 21.888 47.5825 21.9481 47.5825 21.9997C47.5825 22.0685 47.5595 22.1287 47.5137 22.1803C47.4736 22.2261 47.4163 22.2634 47.3417 22.292C47.273 22.3207 47.1927 22.3407 47.101 22.3522C47.0093 22.3637 46.9176 22.3694 46.8259 22.3694C46.6998 22.3694 46.5766 22.3608 46.4563 22.3436V24.8539Z" fill="#2D3E4E"/>
</g>
</g>
</svg>
